<?xml version="1.0" standalone="no"?><!DOCTYPE svg PUBLIC "-//W3C//DTD SVG 1.1//EN" "http://www.w3.org/Graphics/SVG/1.1/DTD/svg11.dtd"><svg t="1606375984566" class="icon" viewBox="0 0 1025 1024" version="1.1" xmlns="http://www.w3.org/2000/svg" p-id="2901" data-spm-anchor-id="a313x.7781069.0.i1" xmlns:xlink="http://www.w3.org/1999/xlink" width="64.0625" height="64"><defs><style type="text/css"></style></defs><path d="M512.012551 92.7744l429.09696 855.22432-858.2144 0 429.09696-855.22432zM512.012551 0c-22.07744 0-44.1344 14.88896-60.88704 44.6464l-437.08416 871.1168c-33.4848 59.53536-4.99712 108.2368 63.30368 108.2368l869.31456 0c68.3008 0 96.78848-48.70144 63.30368-108.2368l0 0-437.08416-871.1168c-16.73216-29.75744-38.8096-44.6464-60.88704-44.6464l0 0z" p-id="2902" fill="#FF8837" data-spm-anchor-id="a313x.7781069.0.i3" class=""></path><path d="M576.012551 832c0 35.34848-28.65152 64-64 64s-64-28.65152-64-64c0-35.34848 28.65152-64 64-64s64 28.65152 64 64z" p-id="2903" fill="#FF8837"></path><path d="M512.012551 704c-35.34848 0-64-28.65152-64-64l0-192c0-35.34848 28.65152-64 64-64s64 28.65152 64 64l0 192c0 35.34848-28.65152 64-64 64z" p-id="2904" fill="#FF8837"></path></svg>